<mxfile host="app.diagrams.net" modified="2024-06-22T11:43:15.384Z" agent="Mozilla/5.0 (Windows NT 10.0; Win64; x64) AppleWebKit/537.36 (KHTML, like Gecko) Chrome/126.0.0.0 Safari/537.36" version="24.4.8" etag="O7ZGXyzseI0rfZmMZyrc" type="github">
  <diagram name="Page-1" id="LkRTVYAGK0ghm7EKOpbx">
    <mxGraphModel>
      <root>
        <mxCell id="0" />
        <mxCell id="1" parent="0" />
      </root>
    </mxGraphModel>
  </diagram>
</mxfile>
